<?xml version="1.0" standalone="no"?><!DOCTYPE svg PUBLIC "-//W3C//DTD SVG 1.1//EN" "http://www.w3.org/Graphics/SVG/1.1/DTD/svg11.dtd"><svg t="1649320801960" class="icon" viewBox="0 0 1024 1024" version="1.1" xmlns="http://www.w3.org/2000/svg" p-id="5768" width="64" height="64" xmlns:xlink="http://www.w3.org/1999/xlink"><defs><style type="text/css">@font-face { font-family: feedback-iconfont; src: url("//at.alicdn.com/t/font_1031158_u69w8yhxdu.woff2?t=1630033759944") format("woff2"), url("//at.alicdn.com/t/font_1031158_u69w8yhxdu.woff?t=1630033759944") format("woff"), url("//at.alicdn.com/t/font_1031158_u69w8yhxdu.ttf?t=1630033759944") format("truetype"); }
</style></defs><path d="M668.284343 428.129524a279.893333 279.893333 0 0 0 1.462857-101.424762l90.697143-52.662857a9.752381 9.752381 0 0 0 3.900952-13.165715L680.962438 117.028571a9.264762 9.264762 0 0 0-13.165714-3.413333l-87.771429 48.761905A268.190476 268.190476 0 0 0 488.352914 110.201905V9.752381a9.752381 9.752381 0 0 0-9.752381-9.752381H312.322438a9.752381 9.752381 0 0 0-9.752381 9.752381v100.449524a263.801905 263.801905 0 0 0-91.672381 54.125714L122.638629 113.615238a9.264762 9.264762 0 0 0-13.165715 3.413333L25.114819 260.87619a9.264762 9.264762 0 0 0 3.413333 13.165715L122.638629 326.704762a279.893333 279.893333 0 0 0-3.900953 45.348571A263.314286 263.314286 0 0 0 122.638629 428.129524L29.99101 481.767619a9.264762 9.264762 0 0 0-3.413334 13.165714l82.895238 143.847619a9.264762 9.264762 0 0 0 13.165715 3.413334L220.162438 585.142857a270.628571 270.628571 0 0 0 84.358095 48.761905v112.152381c0 5.36381 4.388571 9.752381 9.752381 9.752381h165.790476a9.752381 9.752381 0 0 0 9.752381-9.752381V633.904762a292.571429 292.571429 0 0 0 84.358096-48.761905l97.523809 54.613333a9.264762 9.264762 0 0 0 13.165714-3.413333l82.895239-143.847619a9.264762 9.264762 0 0 0-3.413334-13.165714l-96.060952-51.2zM395.217676 487.619048a116.053333 116.053333 0 1 1 2.925714-232.106667A116.053333 116.053333 0 0 1 395.217676 487.619048zM951.59101 828.952381a134.582857 134.582857 0 0 0 2.438095-24.868571 132.144762 132.144762 0 0 0 0-19.992381l39.984762-23.405715a4.87619 4.87619 0 0 0 0-6.826666l-36.571429-63.390477a4.87619 4.87619 0 0 0-6.339048 0l-39.497142 22.430477a125.318095 125.318095 0 0 0-40.472381-23.893334v-44.860952a4.87619 4.87619 0 0 0-4.876191-4.876191h-73.142857a5.36381 5.36381 0 0 0-4.87619 4.876191v44.860952a125.318095 125.318095 0 0 0-40.472381 23.893334l-39.009524-22.430477a5.36381 5.36381 0 0 0-6.826667 0l-36.571428 63.390477a4.87619 4.87619 0 0 0 0 6.826666l40.472381 23.405715a89.721905 89.721905 0 0 0-2.438096 19.992381c0.682667 8.387048 2.145524 16.725333 4.388572 24.868571l-40.472381 23.405714a4.87619 4.87619 0 0 0 0 6.826667l36.571428 63.390476c0.487619 1.950476 1.950476 3.413333 3.900953 3.900952l42.422857-24.868571c11.02019 9.118476 23.552 16.237714 37.059047 20.967619v48.761905a4.87619 4.87619 0 0 0 4.876191 4.87619h73.142857a4.388571 4.388571 0 0 0 4.876191-4.87619v-48.761905a116.053333 116.053333 0 0 0 37.059047-20.967619L951.59101 926.47619c1.950476 1.657905 4.87619 1.657905 6.826666 0l36.571429-63.390476a4.388571 4.388571 0 0 0 0-6.339047L951.59101 828.952381z m-121.904762 26.819048a51.687619 51.687619 0 1 1 36.376381-14.969905c-9.801143 9.752381-23.064381 15.11619-36.864 14.969905h0.487619z" fill="#1296db" p-id="5769"></path></svg>