<svg xmlns="http://www.w3.org/2000/svg" viewBox="0 0 23.03 23.03"><defs><style>.cls-1{fill:#df241b;}</style></defs><title>陕北矿业LOGO</title><g id="图层_2" data-name="图层 2"><g id="Layer_1" data-name="Layer 1"><path class="cls-1" d="M13.71.26s-.6,11.58,7.86,16.86A11.51,11.51,0,0,0,13.71.21Z"/><path class="cls-1" d="M13.16.15v0c-.25,0-.5-.06-.75-.08,0,1.25.13,14.84,4.46,21.66a11.16,11.16,0,0,0,2.57-1.84C18.7,18.86,12.76,10.51,13.16.15Z"/><path class="cls-1" d="M9.87.12V.17c.4,10.32-5.49,18.64-6.27,19.7a11.47,11.47,0,0,0,2.57,1.84C10.49,14.88,10.62,1.29,10.62,0,10.37.06,10.12.08,9.87.12Z"/><path class="cls-1" d="M12.47,15.8A120.68,120.68,0,0,1,11.88,0h-.73a120.73,120.73,0,0,1-.6,15.81c-.42,3.88-1,6.46-1.07,7a11.35,11.35,0,0,0,2,.19,11.58,11.58,0,0,0,2.05-.19A70.53,70.53,0,0,1,12.47,15.8Z"/><path class="cls-1" d="M9.32.28V.21A11.51,11.51,0,0,0,1.47,17.14C9.91,11.85,9.32.28,9.32.28Z"/><path d="M18.24,14.26a14.58,14.58,0,0,0,3.33,2.86,11.2,11.2,0,0,0,.83-1.87A32.51,32.51,0,0,0,18.24,14.26Z"/><path d="M13.89,13.77a25.55,25.55,0,0,0,3,7.93,11.16,11.16,0,0,0,2.57-1.84A34.18,34.18,0,0,1,16.07,14C15.35,13.87,14.63,13.81,13.89,13.77Z"/><path d="M3.6,19.87a11.24,11.24,0,0,0,2.57,1.84,26,26,0,0,0,3-7.94c-.74,0-1.47.1-2.18.18A34.06,34.06,0,0,1,3.6,19.87Z"/><path d="M4.81,14.26a33.4,33.4,0,0,0-4.19,1,11.48,11.48,0,0,0,.85,1.89A14.71,14.71,0,0,0,4.81,14.26Z"/><path d="M12.27,13.71H10.76c-.07.74-.13,1.45-.21,2.11-.42,3.88-1,6.46-1.07,7a11.35,11.35,0,0,0,2,.19,11.58,11.58,0,0,0,2.05-.19,70.53,70.53,0,0,1-1.09-7C12.4,15.14,12.33,14.44,12.27,13.71Z"/></g></g></svg>